<?xml version="1.0" ?><!DOCTYPE svg  PUBLIC '-//W3C//DTD SVG 1.1//EN'  'http://www.w3.org/Graphics/SVG/1.1/DTD/svg11.dtd'><svg enable-background="new 0 0 512 512" height="512px" id="Layer_3" version="1.1" viewBox="0 0 512 512" width="512px" xml:space="preserve" xmlns="http://www.w3.org/2000/svg" xmlns:xlink="http://www.w3.org/1999/xlink"><g><g><path d="M323.8,140.6h-86.3c-3.1-24.5-24-43.4-49.3-43.4c-27.4,0-49.7,22.3-49.7,49.7c0,25.4,19.1,46.4,43.7,49.4v23.7     c0,0,0,0,0,0v188.9c0,3.3,2.7,6,6,6h135.6c3.3,0,6-2.7,6-6V146.6C329.8,143.3,327.1,140.6,323.8,140.6z M182.2,146.6v37.5     c-18-2.9-31.7-18.5-31.7-37.2c0-20.8,16.9-37.7,37.7-37.7c18.7,0,34.2,13.6,37.2,31.4h-37.2C184.9,140.6,182.2,143.3,182.2,146.6     z M317.8,402.9H194.2V227c7.3,1,14.4,1.4,21.5,1.4c10.4,0,20.7-0.9,31.2-1.8l-25.2,145.1c-0.6,3.3,1.6,6.4,4.9,6.9     c0.3,0.1,0.7,0.1,1,0.1c2.9,0,5.4-2.1,5.9-5l25.7-148.3c18.2-1.7,37.1-2.9,58.5-0.3V402.9z M317.8,213.1     c-24.9-2.9-46.4-0.9-67.1,1.1c-19.4,1.9-37.7,3.6-56.5,0.7v-62.3h35.9c0.6,0.2,1.2,0.3,1.8,0.3c0.6,0,1.2-0.1,1.8-0.3h26l-8.5,49     c-0.6,3.3,1.6,6.4,4.9,6.9c0.3,0.1,0.7,0.1,1,0.1c2.9,0,5.4-2.1,5.9-5l8.9-51.1h45.9V213.1z"/><path d="M331.6,100.8c-1.3-3.1-4.8-4.5-7.8-3.3l-55.6,22.9c-1.9,0.8-3.3,2.5-3.6,4.5l-0.8,4.4c-0.6,3.3,1.6,6.4,4.9,6.9     c0.3,0.1,0.7,0.1,1,0.1c2.9,0,5.4-2.1,5.9-5l0.2-1.1l52.5-21.6C331.4,107.4,332.8,103.9,331.6,100.8z"/><path d="M282.5,260.2c-1.5,0.4-2.8,1.4-3.6,2.8l-14.4,25c-1.7,2.9-0.7,6.5,2.2,8.2l25,14.4c0.9,0.5,2,0.8,3,0.8     c0.5,0,1-0.1,1.6-0.2c1.5-0.4,2.8-1.4,3.6-2.8l14.4-25c1.7-2.9,0.7-6.5-2.2-8.2l-25-14.4C285.7,260,284.1,259.8,282.5,260.2z      M292.5,297.2l-14.6-8.4l8.4-14.6l14.6,8.4L292.5,297.2z"/><path d="M288.9,336.4c-1-3.2-4.4-4.9-7.6-3.9l-22.1,7.2c-3.2,1-4.9,4.4-3.9,7.6l7.2,22.1c0.8,2.5,3.2,4.2,5.7,4.2     c0.6,0,1.2-0.1,1.8-0.3l22.1-7.2c3.2-1,4.9-4.4,3.9-7.6L288.9,336.4z M272.1,360l-3.5-10.7l10.7-3.5l3.5,10.7L272.1,360z"/></g></g></svg>